{"title":"Man of Tai Chi.2013.1080p.WEB-DL.x264 . NVEE","uid":8987949,"size":2202315103,"categoryP":"video","categoryS":"hd___movies","magnet":"?xt=urn:btih:22fef997dac51eeac6e0298ff0bfd24d6293b3fa&amp;dn=Man+of+Tai+Chi.2013.1080p.WEB-DL.x264+.+NVEE&amp;tr=udp%3A%2F%2Ftracker.openbittorrent.com%3A80&amp;tr=udp%3A%2F%2Fopen.demonii.com%3A1337&amp;tr=udp%3A%2F%2Ftracker.coppersurfer.tk%3A6969&amp;tr=udp%3A%2F%2Fexodus.desync.com%3A6969","seeders":1,"leechers":0,"uploader":".NVEE","files":15,"time":1380719911,"description":"FULL_INFOs\n\n\n99.99% --- SYNCED GUARANTEED \n\n&quot;Totally scrutinized / analyzed to be a verified torrent.&quot;\n\n___________________________________________\n\n\nSource : WEB-DL ~ 1080p\n\nMy Media Player of Choice &quot;VLC Media Player via HDMI&quot;\n\nSpoken Language : English &amp; Chinese\n\nAudio : 6 ~ Channels Only\n\nDon't delete torrent link,... Please seed . NVEE\n\n_____________________________________\n\n\n\n &lt;a href=&quot;\nhttp://www.imdb.com/title/tt2016940/&quot; rel=&quot;nofollow&quot; target=&quot;_NEW&quot;&gt;\nhttp://www.imdb.com/title/tt2016940/&lt;/a&gt;\n\n\n\n\nSubs Info : MULTI_SUBS/hardsubs\n\n &lt;a href=&quot;\nhttp://www.subtitleseeker.com/2016940/Man+of+Tai+Chi/Subtitles/&quot; rel=&quot;nofollow&quot; target=&quot;_NEW&quot;&gt;\nhttp://www.subtitleseeker.com/2016940/Man+of+Tai+Chi/Subtitles/&lt;/a&gt;\n\n237 Subtitles In 26 Languages Use Link Provided \n &lt;a href=&quot;\nhttp://www.subtitleseeker.com/2016940/Man+of+Tai+Chi/Subtitles/&quot; rel=&quot;nofollow&quot; target=&quot;_NEW&quot;&gt;\nhttp://www.subtitleseeker.com/2016940/Man+of+Tai+Chi/Subtitles/&lt;/a&gt;\n\n237 Subtitles In 26 Languages Only @ SubtitleSeeker\n &lt;a href=&quot;\nhttp://www.subtitleseeker.com/2016940/Man+of+Tai+Chi/Subtitles/&quot; rel=&quot;nofollow&quot; target=&quot;_NEW&quot;&gt;\nhttp://www.subtitleseeker.com/2016940/Man+of+Tai+Chi/Subtitles/&lt;/a&gt;\n\nAll .srt subs can be turned On/Off\n\n\n\n &lt;a href=&quot;\nhttp://www.imdb.com/title/tt2016940/&quot; rel=&quot;nofollow&quot; target=&quot;_NEW&quot;&gt;\nhttp://www.imdb.com/title/tt2016940/&lt;/a&gt;\n\n\n\n\n---------------------------------------------------------------------------------\n\n\n\nGeneral\n\nComplete name : Man Of Tai Chi.2013.1080p.WEB-DL.x264 . NVEE.mp4\nFormat : MPEG-4\nFormat profile : Base Media\nCodec ID : isom\nFile size : 2.05 GiB\nDuration : 1h 45mn\nOverall bit rate : 2 788 Kbps\nEncoded date : UTC 2013-10-02 07:55:38\nTagged date : UTC 2013-10-02 07:55:38\n\n\nVideo\n\nID : 1\nFormat : AVC\nFormat/Info : Advanced Video Codec\nFormat profile : &lt;a class=&quot;__cf_email__&quot; href=&quot;/cdn-cgi/l/email-protection&quot; data-cfemail=&quot;aee6c7c9c6eee29a809e&quot;&gt;[email&amp;#160;protected]&lt;/a&gt;&lt;script cf-hash='f9e31' type=&quot;text/javascript&quot;&gt;\n/* &lt;![CDATA[ */!function(){try{var t=&quot;currentScript&quot;in document?document.currentScript:function(){for(var t=document.getElementsByTagName(&quot;script&quot;),e=t.length;e--;)if(t[e].getAttribute(&quot;cf-hash&quot;))return t[e]}();if(t&amp;&amp;t.previousSibling){var e,r,n,i,c=t.previousSibling,a=c.getAttribute(&quot;data-cfemail&quot;);if(a){for(e=&quot;&quot;,r=parseInt(a.substr(0,2),16),n=2;a.length-n;n+=2)i=parseInt(a.substr(n,2),16)^r,e+=String.fromCharCode(i);e=document.createTextNode(e),c.parentNode.replaceChild(e,c)}}}catch(u){}}();/* ]]&gt; */&lt;/script&gt;\nFormat settings, CABAC : Yes\nFormat settings, ReFrames : 4 frames\nCodec ID : avc1\nCodec ID/Info : Advanced Video Coding\nDuration : 1h 45mn\nBit rate : 2 402 Kbps\nMaximum bit rate : 8 217 Kbps\nWidth : 1 912 pixels\nHeight : 794 pixels\nDisplay aspect ratio : 2.40:1\nFrame rate mode : Constant\nFrame rate : 23.976 fps\nColor space : YUV\nChroma subsampling : 4:2:0\nBit depth : 8 bits\nScan type : Progressive\nBits/(Pixel*Frame) : 0.066\nStream size : 1.77 GiB (86%)\nWriting library : x264 core 133 r2334 a3ac64b\nEncoded date : UTC 2013-10-02 03:16:18\nTagged date : UTC 2013-10-02 07:58:19\n\n\nAudio\n\nID : 2\nFormat : AC-3\nFormat/Info : Audio Coding 3\nMode extension : CM (complete main)\nFormat settings, Endianness : Big\nCodec ID : ac-3\nDuration : 1h 45mn\nBit rate mode : Constant\nBit rate : 384 Kbps\nChannel(s) : 6 channels\nChannel positions : Front: L C R, Side: L R, LFE\nSampling rate : 48.0 KHz\nBit depth : 16 bits\nCompression mode : Lossy\nDelay relative to video : 83ms\nStream size : 289 MiB (14%)\nTitle : 2013.1080p.WEB-DL.x264 . NVEE - [0] English.ac3#trackID=1:lang=&lt;a class=&quot;__cf_email__&quot; href=&quot;/cdn-cgi/l/email-protection&quot; data-cfemail=&quot;395c57797e69787a09170c1708147d7c6f144b5c4f0d0b010a&quot;&gt;[email&amp;#160;protected]&lt;/a&gt;&lt;script cf-hash='f9e31' type=&quot;text/javascript&quot;&gt;\n/* &lt;![CDATA[ */!function(){try{var t=&quot;currentScript&quot;in document?document.currentScript:function(){for(var t=document.getElementsByTagName(&quot;script&quot;),e=t.length;e--;)if(t[e].getAttribute(&quot;cf-hash&quot;))return t[e]}();if(t&amp;&amp;t.previousSibling){var e,r,n,i,c=t.previousSibling,a=c.getAttribute(&quot;data-cfemail&quot;);if(a){for(e=&quot;&quot;,r=parseInt(a.substr(0,2),16),n=2;a.length-n;n+=2)i=parseInt(a.substr(n,2),16)^r,e+=String.fromCharCode(i);e=document.createTextNode(e),c.parentNode.replaceChild(e,c)}}}catch(u){}}();/* ]]&gt; */&lt;/script&gt;\nLanguage : English\nEncoded date : UTC 2013-10-02 07:57:27\nTagged date : UTC 2013-10-02 07:58:19\n\n\n\nSynopsis\n\nDonaka Mark is the boss in the Underworld Fighting. Tiger Chen works as a delivery boy and the only person living, to practice Tai Chi. When he comes to know that the temple sacred to him is set to demolition, he needs a lot of money to save it. He accepts a job offer, from Donaka Mark, which is indeed not a job, but win to get paid. He also likes to use his Tai Chi for fighting opposed to his Master.\n\n\nEnjoy !","torrent":{"xt":"urn:btih:22fef997dac51eeac6e0298ff0bfd24d6293b3fa","amp;dn":"Man+of+Tai+Chi.2013.1080p.WEB-DL.x264+.+NVEE","amp;tr":["udp%3A%2F%2Ftracker.openbittorrent.com%3A80","udp%3A%2F%2Fopen.demonii.com%3A1337","udp%3A%2F%2Ftracker.coppersurfer.tk%3A6969","udp%3A%2F%2Fexodus.desync.com%3A6969"],"infoHash":"22fef997dac51eeac6e0298ff0bfd24d6293b3fa","infoHashBuffer":{"type":"Buffer","data":[34,254,249,151,218,197,30,234,198,224,41,143,240,191,210,77,98,147,179,250]},"announce":[],"urlList":[]}}